Coordinates
version=1
nRows=11
nColumns=42
inDegrees=yes

Units are S.I. units (second, meters, Newtons, ...)
If the header above contains a line with 'inDegrees', this indicates whether rotational values are in degrees (yes) or radians (no).

endheader
time	pelvis_tilt	pelvis_list	pelvis_rotation	pelvis_tx	pelvis_ty	pelvis_tz	hip_flexion_r	hip_adduction_r	hip_rotation_r	knee_angle_r	knee_adduction_r	knee_angle_r_beta	ankle_angle_r	subtalar_angle_r	mtp_angle_r	hip_flexion_l	hip_adduction_l	hip_rotation_l	knee_angle_l	knee_adduction_l	knee_angle_l_beta	ankle_angle_l	subtalar_angle_l	mtp_angle_l	lumbar_extension	lumbar_bending	lumbar_rotation	arm_flex_r	arm_add_r	arm_rot_r	elbow_flex_r	pro_sup_r	wrist_flex_r	wrist_dev_r	arm_flex_l	arm_add_l	arm_rot_l	elbow_flex_l	pro_sup_l	wrist_flex_l	wrist_dev_l
      0.75000000	     19.40091628	     -0.31331824	      0.59130299	     -1.20415031	      0.88303913	     -0.00598898	    -28.08494976	      4.23366691	    -10.75179656	     18.96774213	     -0.28915555	      0.33104955	     27.48082965	      6.26432549	     -8.07434001	      8.08130936	     -3.03963221	      8.20997589	      9.95648829	      4.43866639	      0.17377350	      1.95004078	    -12.10175387	     -8.07434001	    -37.50275491	     -0.12331048	      0.88155522	     23.20609434	     -9.26347041	     -0.03285454	     35.65058159	     90.00000001	      0.00000000	      0.00000000	      4.94594630	     -3.85275276	    -35.73268439	     32.73787216	     90.00000001	      0.00000000	      0.00000000
      0.76000000	     19.27918901	     -0.40269709	      0.43396856	     -1.19427980	      0.88159240	     -0.00697188	    -28.57038028	      4.14913732	    -10.78020102	     19.17848629	     -0.36708479	      0.33472773	     27.48181334	      6.26735574	     -8.07342851	      8.09591685	     -3.00365393	      8.37773151	     10.14429159	      4.53382984	      0.17705129	      1.91151982	    -12.12398741	     -8.07342851	    -37.17898133	     -0.09144728	      1.01661201	     23.16923136	     -9.23681704	     -0.02952095	     35.65888653	     90.00000001	      0.00000000	      0.00000000	      4.65281332	     -3.71790723	    -35.76064293	     32.63426390	     90.00000001	      0.00000000	      0.00000000
      0.77000000	     19.19961774	     -0.42847676	      0.43939520	     -1.18460229	      0.88005932	     -0.00829141	    -28.91281660	      3.91553964	    -11.63834354	     19.81343886	     -0.41981706	      0.34580974	     27.64788438	      6.97938022	     -8.05685554	      8.68096930	     -2.89892513	      8.48604190	     11.79727247	      4.95639527	      0.20590125	      1.51547896	    -13.85127019	     -8.05685554	    -36.95046332	     -0.04104651	      0.99598331	     23.14687667	     -9.21817953	     -0.00285824	     35.72227826	     90.00000001	      0.00000000	      0.00000000	      4.53344922	     -3.61629363	    -36.10160077	     32.38628314	     90.00000001	      0.00000000	      0.00000000
      0.78000000	     19.04437682	     -0.47685744	      0.34102468	     -1.17468152	      0.87857911	     -0.00953466	    -29.16499314	      3.66842276	    -11.99702936	     20.50013652	     -0.41029316	      0.35779488	     27.56798054	      7.21348817	     -8.05031426	      8.94027303	     -2.85616235	      8.79658583	     12.74749560	      5.36855760	      0.22248577	      1.43575637	    -14.28466019	     -8.05031426	    -36.61008156	     -0.02150974	      1.11275637	     23.01158639	     -9.21413488	     -0.05069529	     35.73673826	     90.00000001	      0.00000000	      0.00000000	      4.33384163	     -3.48694144	    -36.20309820	     32.24753926	     90.00000001	      0.00000000	      0.00000000
      0.79000000	     18.78609023	     -0.51513952	      0.33568732	     -1.16451851	      0.87693444	     -0.01097286	    -29.27859180	      3.44730574	    -12.72423630	     21.23899435	     -0.55199346	      0.37069038	     27.54331260	      7.75650455	     -8.04019638	      9.50541362	     -2.73448784	      8.90223771	     14.24687672	      5.71642562	      0.24865491	      1.21781101	    -14.98566432	     -8.04019638	    -36.12633011	      0.03251636	      1.12528247	     22.80648406	     -9.19516668	     -0.19333571	     35.76403296	     90.00000001	      0.00000000	      0.00000000	      4.11042303	     -3.36873481	    -36.40177209	     32.02750863	     90.00000001	      0.00000000	      0.00000000
      0.80000000	     18.57248007	     -0.42544094	      0.27304335	     -1.15414156	      0.87544915	     -0.01236795	    -29.36634246	      3.05424281	    -13.89624316	     22.09637191	     -0.91417244	      0.38565444	     27.89260203	      9.73252327	     -8.00573315	      9.88298381	     -2.47181970	      9.13116270	     15.60088087	      6.06135888	      0.27228674	      0.92056621	    -15.35888236	     -8.00573315	    -35.67151237	     -0.08402715	      1.15755217	     22.53188666	     -9.11071688	     -0.56131695	     35.70549642	     90.00000001	      0.00000000	      0.00000000	      3.96630300	     -3.23907113	    -36.98016647	     31.80560293	     90.00000001	      0.00000000	      0.00000000
      0.81000000	     18.34691779	     -0.44111014	      0.19550887	     -1.14387157	      0.87414051	     -0.01375500	    -29.47087435	      2.73894805	    -14.12803665	     22.95183635	     -0.90195217	      0.40058511	     27.58457338	      9.80413501	     -8.00150322	     10.16861777	     -2.39139679	      9.62430559	     16.73466541	      6.56304030	      0.29207501	      0.67761066	    -15.47893414	     -8.00150322	    -35.23565906	     -0.10566193	      1.26676509	     22.22999107	     -9.11828499	     -0.67094323	     35.68210364	     90.00000001	      0.00000000	      0.00000000	      3.77382164	     -3.11801440	    -37.02359690	     31.66076928	     90.00000001	      0.00000000	      0.00000000
      0.82000000	     18.09464959	     -0.41535874	      0.18850758	     -1.13338212	      0.87283306	     -0.01534653	    -29.52898917	      2.39178703	    -14.50405118	     23.85746043	     -0.93886809	      0.41639124	     27.15702562	      9.99273596	     -7.99689739	     10.61661168	     -2.22972971	      9.96704694	     18.21859805	      7.05305787	      0.31797452	      0.43530921	    -15.69276705	     -7.99689739	    -34.74368148	     -0.12065888	      1.31410560	     21.85634945	     -9.12629003	     -0.90174328	     35.67919000	     90.00000001	      0.00000000	      0.00000000	      3.55496211	     -3.01945550	    -37.10841377	     31.48046346	     90.00000001	      0.00000000	      0.00000000
      0.83000000	     17.80003301	     -0.34585632	      0.24237264	     -1.12267224	      0.87157203	     -0.01704109	    -29.54809942	      2.07535786	    -15.04655109	     24.71432504	     -1.14579344	      0.43134634	     26.66080024	     10.45225071	     -7.98888484	     11.22166612	     -1.93498099	     10.02908170	     20.00923105	      7.32237639	      0.34922696	      0.28620780	    -15.87116552	     -7.98888484	    -34.17924475	     -0.16788972	      1.29124707	     21.36858756	     -9.04332708	     -1.35232729	     35.68002052	     90.00000001	      0.00000000	      0.00000000	      3.36428374	     -2.92836542	    -37.26390210	     31.28781619	     90.00000001	      0.00000000	      0.00000000
      0.84000000	     17.57395544	     -0.22728735	      0.23799498	     -1.11192029	      0.87060971	     -0.01864766	    -29.58353666	      1.66439601	    -15.45245311	     25.67837570	     -1.32429210	      0.44817220	     26.11151554	     10.99193663	     -7.97848596	     11.64347482	     -1.63579880	     10.24230367	     21.61158394	      7.68660873	      0.37719330	      0.30386841	    -15.76756905	     -7.97848596	    -33.70134623	     -0.30250611	      1.34325319	     20.86635805	     -8.98083301	     -1.91020327	     35.62383078	     90.00000001	      0.00000000	      0.00000000	      3.19906052	     -2.84862776	    -37.44486587	     31.11813539	     90.00000001	      0.00000000	      0.00000000
      0.85000000	     17.41386854	     -0.11640894	      0.18621991	     -1.10122568	      0.86998362	     -0.02022496	    -29.61761533	      1.17076902	    -15.55206189	     26.78644528	     -1.29500315	      0.46751167	     25.42645708	     11.18817055	     -7.97424010	     11.81992715	     -1.42841794	     10.79043966	     22.84282296	      8.29194535	      0.39868247	      0.34103432	    -15.75439252	     -7.97424010	    -33.30932438	     -0.45852999	      1.41828971	     20.33907834	     -8.93801995	     -2.20539608	     35.53195941	     90.00000001	      0.00000000	      0.00000000	      3.05641921	     -2.77127167	    -37.52222434	     30.98523176	     90.00000001	      0.00000000	      0.00000000
